<?xml version="1.0" standalone="no"?><!DOCTYPE svg PUBLIC "-//W3C//DTD SVG 1.1//EN" "http://www.w3.org/Graphics/SVG/1.1/DTD/svg11.dtd"><svg t="1497323871488" class="icon" style="" viewBox="0 0 1118 1024" version="1.1" xmlns="http://www.w3.org/2000/svg" p-id="2490" xmlns:xlink="http://www.w3.org/1999/xlink" width="218.359375" height="200"><defs><style type="text/css"></style></defs><path d="M139.606012 796.444444C93.398234 796.444444 55.854545 758.194462 55.854545 711.201029L55.854545 28.444444 27.927273 56.888889 977.598543 56.888889C1023.737232 56.888889 1061.236364 95.132394 1061.236364 142.132305L1061.236364 824.888888 1089.163636 796.444444 558.545455 796.444444 550.149234 796.444444 543.145027 801.160262 304.106924 962.100692C291.240236 970.76362 287.704732 988.409979 296.210153 1001.514938 304.715574 1014.619897 322.04109 1018.220874 334.907778 1009.557946L573.945882 848.617516 558.545455 853.333334 1089.163636 853.333334 1117.090909 853.333334 1117.090909 824.888888 1117.090909 142.132305C1117.090909 63.730158 1054.601197 0 977.598543 0L27.927273 0 0 0 0 28.444444 0 711.201029C0 789.609651 62.54701 853.333334 139.606012 853.333334L285.179313 853.333334C300.60312 853.333334 313.106586 840.598321 313.106586 824.888888 313.106586 809.179457 300.60312 796.444444 285.179313 796.444444L139.606012 796.444444Z" p-id="2491" fill="#2c2c2c"></path><path d="M390.981818 426.666666C390.981818 363.828936 340.967955 312.888888 279.272727 312.888888 217.5775 312.888888 167.563636 363.828936 167.563636 426.666666 167.563636 489.504398 217.5775 540.444444 279.272727 540.444444 340.967955 540.444444 390.981818 489.504398 390.981818 426.666666ZM223.418182 426.666666C223.418182 395.2478 248.425114 369.777778 279.272727 369.777778 310.120341 369.777778 335.127273 395.2478 335.127273 426.666666 335.127273 458.085532 310.120341 483.555556 279.272727 483.555556 248.425114 483.555556 223.418182 458.085532 223.418182 426.666666Z" p-id="2492" fill="#2c2c2c"></path><path d="M670.254545 426.666666C670.254545 363.828936 620.240682 312.888888 558.545455 312.888888 496.850227 312.888888 446.836364 363.828936 446.836364 426.666666 446.836364 489.504398 496.850227 540.444444 558.545455 540.444444 620.240682 540.444444 670.254545 489.504398 670.254545 426.666666ZM502.690909 426.666666C502.690909 395.2478 527.697841 369.777778 558.545455 369.777778 589.393068 369.777778 614.4 395.2478 614.4 426.666666 614.4 458.085532 589.393068 483.555556 558.545455 483.555556 527.697841 483.555556 502.690909 458.085532 502.690909 426.666666Z" p-id="2493" fill="#2c2c2c"></path><path d="M949.527273 426.666666C949.527273 363.828936 899.513409 312.888888 837.818182 312.888888 776.122954 312.888888 726.109091 363.828936 726.109091 426.666666 726.109091 489.504398 776.122954 540.444444 837.818182 540.444444 899.513409 540.444444 949.527273 489.504398 949.527273 426.666666ZM781.963636 426.666666C781.963636 395.2478 806.970568 369.777778 837.818182 369.777778 868.665795 369.777778 893.672727 395.2478 893.672727 426.666666 893.672727 458.085532 868.665795 483.555556 837.818182 483.555556 806.970568 483.555556 781.963636 458.085532 781.963636 426.666666Z" p-id="2494" fill="#2c2c2c"></path></svg>