<?xml version="1.0" standalone="no"?><!DOCTYPE svg PUBLIC "-//W3C//DTD SVG 1.1//EN" "http://www.w3.org/Graphics/SVG/1.1/DTD/svg11.dtd"><svg t="1497323913523" class="icon" style="" viewBox="0 0 1024 1024" version="1.1" xmlns="http://www.w3.org/2000/svg" p-id="3208" xmlns:xlink="http://www.w3.org/1999/xlink" width="200" height="200"><defs><style type="text/css"></style></defs><path d="M876.448 362.624c-34.592-8.864-116-8.768-235.008-11.84 5.664-25.344 6.944-48.192 6.944-88.8 0-96.928-72.352-182.304-136.384-182.304-45.216 0-82.496 36.064-83.072 80.448-0.576 54.4-17.824 148.416-110.72 196.032-6.816 3.488-26.304 12.864-29.12 14.112l1.472 1.216c-14.592-12.256-34.72-21.632-55.36-21.632L152.096 349.856c-45.792 0-83.072 36.384-83.072 81.088l0 432.32c0 44.672 37.28 81.056 83.072 81.056L235.2 944.32c32.928 0 60.512-19.392 73.824-46.688 0.32 0.128 0.96 0.288 1.312 0.416 1.856 0.448 4 0.96 6.688 1.664 0.448 0.064 0.704 0.128 1.216 0.256 15.936 3.872 46.624 11.072 112.256 25.888 14.08 3.072 88.352 18.496 165.376 18.496l151.328 0c46.144 0 79.392-17.28 99.136-52.064 0.352-0.544 6.688-12.672 11.904-29.088 3.936-12.352 5.344-29.824 0.672-47.552 29.696-19.936 39.296-50.08 45.504-69.728 10.432-32.128 7.296-56.384 0-73.696 16.704-15.392 31.008-38.88 37.056-74.688 3.712-22.208-0.288-45.088-10.816-64.128 15.68-17.184 22.88-38.784 23.648-58.784l0.32-5.664c0.192-3.52 0.416-5.728 0.416-13.536C954.976 421.28 930.72 377.792 876.448 362.624zM262.848 863.296c0 14.912-12.352 27.008-27.648 27.008L152.096 890.304c-15.296 0-27.712-12.096-27.712-27.008l0-432.32c0-14.944 12.416-27.04 27.712-27.04L235.2 403.936c15.328 0 27.648 12.096 27.648 27.04L262.848 863.296zM898.976 472.416C898.368 485.76 892.672 512 844.256 512c-41.568 0-55.424 0-55.424 0-7.648 0-13.824 6.048-13.824 13.504 0 7.488 6.144 13.536 13.824 13.536 0 0 12.16 0 53.696 0 41.472 0 46.944 33.6 44.256 49.824-3.328 20.128-13.056 58.24-59.808 58.24s-65.792 0-65.792 0c-7.648 0-13.824 6.016-13.824 13.568 0 7.456 6.144 13.504 13.824 13.504 0 0 32.864 0 54.528 0 46.688 0 42.624 34.72 35.872 55.552-8.8 27.264-14.208 52.48-73.088 52.48-19.872 0-45.152 0-45.152 0-7.648 0-13.824 6.016-13.824 13.504s6.144 13.504 13.824 13.504c0 0 19.168 0 43.392 0 30.272 0 31.68 28.032 28.576 38.048-3.456 10.944-7.52 19.104-7.712 19.424-8.384 14.784-21.888 23.584-50.4 23.584L595.84 890.272c-76.064 0-151.488-16.768-153.408-17.248-114.976-25.856-121.056-27.84-128.256-29.888 0 0-23.392-3.872-23.392-23.808L290.56 446.176c0-12.704 8.224-24.128 21.952-28.16 1.728-0.672 4.032-1.344 5.728-2.048 126.464-51.072 164.992-163.2 166.144-255.232C484.48 147.808 494.688 133.728 512 133.728c29.248 0 81.024 57.312 81.024 128.256 0 64.064-2.656 75.168-25.664 141.92 276.864 0 274.88 3.904 299.328 10.144 30.272 8.448 32.896 32.96 32.896 41.376C899.584 464.704 899.296 463.36 898.976 472.416zM193.664 782.176c-22.944 0-41.536 18.112-41.536 40.512s18.592 40.608 41.536 40.608c22.88 0 41.536-18.208 41.536-40.608S216.544 782.176 193.664 782.176zM193.664 836.256c-7.648 0-13.888-6.08-13.888-13.568 0-7.36 6.24-13.504 13.888-13.504 7.584 0 13.824 6.112 13.824 13.504C207.488 830.144 201.248 836.256 193.664 836.256z" p-id="3209" fill="#2c2c2c"></path></svg>