<?xml version="1.0" standalone="no"?><!DOCTYPE svg PUBLIC "-//W3C//DTD SVG 1.1//EN" "http://www.w3.org/Graphics/SVG/1.1/DTD/svg11.dtd"><svg t="1497334935136" class="icon" style="" viewBox="0 0 1024 1024" version="1.1" xmlns="http://www.w3.org/2000/svg" p-id="2388" xmlns:xlink="http://www.w3.org/1999/xlink" width="200" height="200"><defs><style type="text/css"></style></defs><path d="M520.533333 750.933333C511.789512 750.933333 503.392142 747.332267 497.205475 740.932267 487.570773 730.965333 478.084552 723.473067 459.194595 708.539733 447.217208 699.067733 431.808285 686.882133 410.691128 669.610667 369.3312 635.7504 273.066667 545.518933 273.066667 439.0912 273.066667 347.579733 341.532445 273.1008 425.687608 273.1008 461.190827 273.1008 493.823432 286.651733 520.533333 311.927467 547.276232 286.6176 579.958328 273.066667 615.494542 273.066667 699.583715 273.066667 768 347.153067 768 438.2208 768 528.622933 696.680107 617.198933 629.930098 669.969067L602.758258 691.370667C568.44288 718.370133 556.894435 727.4496 543.861192 740.932267 537.674525 747.332267 529.277155 750.933333 520.533333 750.933333L520.533333 750.933333ZM425.687608 341.367467C384.03072 341.367467 339.057778 378.7264 339.057778 439.0912 339.057778 517.853867 425.225672 594.466133 451.638613 616.072533 472.37632 633.0368 487.504782 645.000533 499.2512 654.301867 507.533085 660.8384 514.313672 666.197333 520.285867 671.1296 530.547485 662.408533 543.399253 652.305067 562.80064 637.047467L589.856995 615.7312C641.594027 574.839467 702.008888 503.808 702.008888 438.2208 702.008888 378.368 657.101938 341.333333 615.494542 341.333333 588.982613 341.333333 565.638258 355.805867 547.985635 383.197867 541.86496 392.704 531.553848 398.404267 520.533333 398.404267 509.49632 398.404267 499.201707 392.704 493.081032 383.197867 475.444907 355.84 452.150045 341.367467 425.687608 341.367467L425.687608 341.367467Z" p-id="2389"></path></svg>